<svg xmlns="http://www.w3.org/2000/svg"  viewBox="0 0 64 64" width="64px" height="64px"><radialGradient id="DGBzDo~ShQZ296K2za88Wa" cx="32" cy="790.5" r="31.259" gradientTransform="matrix(1 0 0 -1 0 822)" gradientUnits="userSpaceOnUse"><stop offset="0" stop-color="#c5f1ff"/><stop offset=".35" stop-color="#cdf3ff"/><stop offset=".907" stop-color="#e4faff"/><stop offset="1" stop-color="#e9fbff"/></radialGradient><path fill="url(#DGBzDo~ShQZ296K2za88Wa)" d="M58,54c-1.105,0-2-0.895-2-2s0.895-2,2-2h2.5c1.925,0,3.5-1.575,3.5-3.5S62.425,43,60.5,43H50	c-1.381,0-2.5-1.119-2.5-2.5S48.619,38,50,38h8c1.65,0,3-1.35,3-3s-1.35-3-3-3H42v-6h18c2.335,0,4.22-2.028,3.979-4.41	C63.77,19.514,61.897,18,59.811,18H58c-1.105,0-2-0.895-2-2s0.895-2,2-2h0.357c1.308,0,2.499-0.941,2.63-2.242	C61.137,10.261,59.966,9,58.5,9h-14C43.672,9,43,8.328,43,7.5S43.672,6,44.5,6h3.857c1.308,0,2.499-0.941,2.63-2.242	C51.137,2.261,49.966,1,48.5,1H15.643c-1.308,0-2.499,0.941-2.63,2.242C12.863,4.739,14.034,6,15.5,6H19c1.105,0,2,0.895,2,2	s-0.895,2-2,2H6.189c-2.086,0-3.958,1.514-4.168,3.59C1.78,15.972,3.665,18,6,18h2.5c1.933,0,3.5,1.567,3.5,3.5S10.433,25,8.5,25	H5.189c-2.086,0-3.958,1.514-4.168,3.59C0.78,30.972,2.665,33,5,33h17v11H6c-1.65,0-3,1.35-3,3s1.35,3,3,3l0,0c1.105,0,2,0.895,2,2	s-0.895,2-2,2H4.189c-2.086,0-3.958,1.514-4.168,3.59C-0.22,59.972,1.665,62,4,62h53.811c2.086,0,3.958-1.514,4.168-3.59	C62.22,56.028,60.335,54,58,54z"/><linearGradient id="DGBzDo~ShQZ296K2za88Wb" x1="32" x2="32" y1="760.479" y2="804.479" gradientTransform="matrix(1 0 0 -1 0 822)" gradientUnits="userSpaceOnUse"><stop offset="0" stop-color="#ff634d"/><stop offset=".204" stop-color="#fe6464"/><stop offset=".521" stop-color="#fc6581"/><stop offset=".794" stop-color="#fa6694"/><stop offset=".989" stop-color="#fa669a"/><stop offset="1" stop-color="#fa669a"/></linearGradient><path fill="url(#DGBzDo~ShQZ296K2za88Wb)" d="M50,12H14c-2.209,0-4,1.791-4,4v36c0,2.209,1.791,4,4,4h36c2.209,0,4-1.791,4-4V16	C54,13.791,52.209,12,50,12z"/><path fill="#fff" d="M17.277,40.611l4.049-6.499l-3.799-6.198c-0.2-0.35-0.325-0.725-0.325-1.125 c0-1.2,0.975-2.174,2.175-2.174c0.774,0,1.475,0.45,1.849,1.075l2.875,4.899L27,25.64c0.35-0.625,1.025-1.025,1.774-1.025 c1.15,0,2.075,0.925,2.075,2.075c0,0.399-0.125,0.774-0.325,1.075l-3.949,6.373l3.999,6.398c0.2,0.35,0.325,0.725,0.325,1.15 c0,1.225-0.975,2.199-2.199,2.199c-0.8,0-1.525-0.425-1.9-1.1l-2.924-5.074l-2.924,5.099c-0.375,0.625-1.049,1.075-1.849,1.075 c-1.2,0-2.15-0.95-2.15-2.149C16.952,41.335,17.077,40.961,17.277,40.611z"/><path fill="#fff" d="M38.9,29.789c2.074,0,2.949,0.875,3.499,1.475v-4.899c0-1.274,1.05-2.324,2.324-2.324 c1.275,0,2.325,1.05,2.325,2.324v14.921c0,1.524-0.825,2.649-2.149,2.649c-1.05,0-1.925-0.75-2.125-1.774 C41.95,43.185,40.6,43.96,38.65,43.96c-3.674,0-5.824-2.724-5.824-6.898C32.827,32.838,35.026,29.789,38.9,29.789z M40.025,40.861 c1.725,0,2.5-1.6,2.5-3.924c0-2.299-0.75-3.899-2.475-3.899s-2.549,1.6-2.549,3.924C37.5,39.236,38.3,40.861,40.025,40.861z"/></svg>