<svg aria-hidden="true" focusable="false" data-prefix="fab" data-icon="github" role="img" xmlns="http://www.w3.org/2000/svg" width="496" height="512" style=""><rect id="backgroundrect" width="100%" height="100%" x="0" y="0" fill="none" stroke="none"/><g class="currentLayer" style=""><title>Layer 1</title><path fill="#ffffff" d="M165.89999389648438,396.6248000860214 c0,2 -2.299999952316284,3.5999999046325684 -5.199999809265137,3.5999999046325684 c-3.299999952316284,0.30000001192092896 -5.599999904632568,-1.2999999523162842 -5.599999904632568,-3.5999999046325684 c0,-2 2.299999952316284,-3.5999999046325684 5.199999809265137,-3.5999999046325684 c3,-0.30000001192092896 5.599999904632568,1.2999999523162842 5.599999904632568,3.5999999046325684 zm-31.100000381469727,-4.5 c-0.699999988079071,2 1.2999999523162842,4.300000190734863 4.300000190734863,4.900000095367432 c2.5999999046325684,1 5.599999904632568,0 6.199999809265137,-2 s-1.2999999523162842,-4.300000190734863 -4.300000190734863,-5.199999809265137 c-2.5999999046325684,-0.699999988079071 -5.5,0.30000001192092896 -6.199999809265137,2.299999952316284 zm44.20000076293945,-1.7000000476837158 c-2.9000000953674316,0.699999988079071 -4.900000095367432,2.5999999046325684 -4.599999904632568,4.900000095367432 c0.30000001192092896,2 2.9000000953674316,3.299999952316284 5.900000095367432,2.5999999046325684 c2.9000000953674316,-0.699999988079071 4.900000095367432,-2.5999999046325684 4.599999904632568,-4.599999904632568 c-0.30000001192092896,-1.899999976158142 -3,-3.200000047683716 -5.900000095367432,-2.9000000953674316 zM244.8000030517578,7.224806189537048 C106.0999984741211,7.224806189537048 0,112.52480924129486 0,251.22480618953705 c0,110.9000015258789 69.80000305175781,205.8000030517578 169.5,239.1999969482422 c12.800000190734863,2.299999952316284 17.299999237060547,-5.599999904632568 17.299999237060547,-12.100000381469727 c0,-6.199999809265137 -0.30000001192092896,-40.400001525878906 -0.30000001192092896,-61.400001525878906 c0,0 -70,15 -84.69999694824219,-29.799999237060547 c0,0 -11.399999618530273,-29.100000381469727 -27.799999237060547,-36.599998474121094 c0,0 -22.899999618530273,-15.699999809265137 1.600000023841858,-15.399999618530273 c0,0 24.899999618530273,2 38.599998474121094,25.799999237060547 c21.899999618530273,38.599998474121094 58.599998474121094,27.5 72.9000015258789,20.899999618530273 c2.299999952316284,-16 8.800000190734863,-27.100000381469727 16,-33.70000076293945 c-55.900001525878906,-6.199999809265137 -112.30000305175781,-14.300000190734863 -112.30000305175781,-110.5 c0,-27.5 7.599999904632568,-41.29999923706055 23.600000381469727,-58.900001525878906 c-2.5999999046325684,-6.5 -11.100000381469727,-33.29999923706055 2.5999999046325684,-67.9000015258789 c20.899999618530273,-6.5 69,27 69,27 c20,-5.599999904632568 41.5,-8.5 62.79999923706055,-8.5 s42.79999923706055,2.9000000953674316 62.79999923706055,8.5 c0,0 48.099998474121094,-33.599998474121094 69,-27 c13.699999809265137,34.70000076293945 5.199999809265137,61.400001525878906 2.5999999046325684,67.9000015258789 c16,17.700000762939453 25.799999237060547,31.5 25.799999237060547,58.900001525878906 c0,96.5 -58.900001525878906,104.19999694824219 -114.80000305175781,110.5 c9.199999809265137,7.900000095367432 17,22.899999618530273 17,46.400001525878906 c0,33.70000076293945 -0.30000001192092896,75.4000015258789 -0.30000001192092896,83.5999984741211 c0,6.5 4.599999904632568,14.399999618530273 17.299999237060547,12.100000381469727 C428.20001220703125,457.0247939825058 496,362.1248000860214 496,251.22480618953705 C496,112.52480924129486 383.5,7.224806189537048 244.8000030517578,7.224806189537048 zM97.19999694824219,352.1248000860214 c-1.2999999523162842,1 -1,3.299999952316284 0.699999988079071,5.199999809265137 c1.600000023841858,1.600000023841858 3.9000000953674316,2.299999952316284 5.199999809265137,1 c1.2999999523162842,-1 1,-3.299999952316284 -0.699999988079071,-5.199999809265137 c-1.600000023841858,-1.600000023841858 -3.9000000953674316,-2.299999952316284 -5.199999809265137,-1 zm-10.800000190734863,-8.100000381469727 c-0.699999988079071,1.2999999523162842 0.30000001192092896,2.9000000953674316 2.299999952316284,3.9000000953674316 c1.600000023841858,1 3.5999999046325684,0.699999988079071 4.300000190734863,-0.699999988079071 c0.699999988079071,-1.2999999523162842 -0.30000001192092896,-2.9000000953674316 -2.299999952316284,-3.9000000953674316 c-2,-0.6000000238418579 -3.5999999046325684,-0.30000001192092896 -4.300000190734863,0.699999988079071 zm32.400001525878906,35.599998474121094 c-1.600000023841858,1.2999999523162842 -1,4.300000190734863 1.2999999523162842,6.199999809265137 c2.299999952316284,2.299999952316284 5.199999809265137,2.5999999046325684 6.5,1 c1.2999999523162842,-1.2999999523162842 0.699999988079071,-4.300000190734863 -1.2999999523162842,-6.199999809265137 c-2.200000047683716,-2.299999952316284 -5.199999809265137,-2.5999999046325684 -6.5,-1 zm-11.399999618530273,-14.699999809265137 c-1.600000023841858,1 -1.600000023841858,3.5999999046325684 0,5.900000095367432 c1.600000023841858,2.299999952316284 4.300000190734863,3.299999952316284 5.599999904632568,2.299999952316284 c1.600000023841858,-1.2999999523162842 1.600000023841858,-3.9000000953674316 0,-6.199999809265137 c-1.399999976158142,-2.299999952316284 -4,-3.299999952316284 -5.599999904632568,-2 z" id="svg_1" class="" fill-opacity="1"/></g></svg>