<?xml version="1.0" standalone="no"?>
<!DOCTYPE svg PUBLIC "-//W3C//DTD SVG 20010904//EN"
 "http://www.w3.org/TR/2001/REC-SVG-20010904/DTD/svg10.dtd">
<svg version="1.0" xmlns="http://www.w3.org/2000/svg"
 width="200.000000pt" height="200.000000pt" viewBox="0 0 200.000000 200.000000"
 preserveAspectRatio="xMidYMid meet">
<metadata>
Created by potrace 1.16, written by Peter Selinger 2001-2019
</metadata>
<g transform="translate(0.000000,200.000000) scale(0.100000,-0.100000)"
fill="#000000" stroke="none">
<path d="M0 1000 l0 -1000 1000 0 1000 0 0 1000 0 1000 -1000 0 -1000 0 0
-1000z m1221 794 c56 -31 457 -431 484 -484 10 -20 20 -66 23 -105 7 -117 -6
-139 -243 -375 l-205 -205 -92 93 -93 92 188 188 187 187 -188 188 -187 187
-280 -280 -280 -280 280 -280 280 -280 92 92 93 93 95 -95 95 -95 -102 -102
c-128 -129 -178 -157 -273 -157 -114 0 -131 13 -477 361 -339 340 -348 352
-348 463 0 112 8 122 353 467 296 297 341 336 412 354 50 13 135 0 186 -27z"/>
</g>
</svg>
